<?xml version="1.0" standalone="no"?>
<!DOCTYPE svg PUBLIC "-//W3C//DTD SVG 20010904//EN"
 "http://www.w3.org/TR/2001/REC-SVG-20010904/DTD/svg10.dtd">
<svg version="1.0" xmlns="http://www.w3.org/2000/svg"
 width="700.000000pt" height="700.000000pt" viewBox="0 0 700.000000 700.000000"
 preserveAspectRatio="xMidYMid meet">
<metadata>
Created by potrace 1.14, written by Peter Selinger 2001-2017
</metadata>
<g transform="translate(0.000000,700.000000) scale(0.100000,-0.100000)"
fill="#000000" stroke="none">
<path d="M5139 6446 c-2 -2 -26 -7 -53 -10 -101 -14 -236 -69 -348 -143 -54
-36 -509 -485 -1942 -1919 -1029 -1029 -1879 -1887 -1888 -1905 -23 -45 -320
-1232 -323 -1289 -2 -54 20 -134 48 -175 68 -97 199 -150 306 -122 18 5 41 10
50 12 9 2 90 22 181 45 91 23 172 43 180 45 8 2 98 24 200 50 102 26 192 48
200 50 126 28 389 99 422 115 32 15 536 513 1919 1897 1032 1033 1890 1899
1907 1924 73 109 135 264 150 374 9 64 9 226 0 290 -18 131 -86 292 -172 403
-94 123 -200 209 -335 274 -126 60 -214 80 -367 84 -72 2 -132 2 -135 0z m256
-615 c116 -57 179 -161 178 -292 -1 -149 157 20 -1866 -2004 l-1815 -1815
-303 -75 c-166 -41 -304 -73 -306 -71 -2 2 26 122 62 267 37 145 71 282 76
304 9 36 211 241 1807 1838 988 989 1815 1811 1838 1827 96 68 218 76 329 21z"/>
<path d="M3421 1448 c-87 -24 -173 -111 -201 -202 -16 -50 -8 -151 15 -202 28
-60 104 -129 167 -150 50 -17 124 -18 1408 -19 1263 0 1357 1 1404 17 67 24
110 55 146 105 89 122 65 301 -52 393 -92 73 3 69 -1501 68 -846 0 -1365 -4
-1386 -10z"/>
</g>
</svg>
