<?xml version="1.0" standalone="no"?>
<!DOCTYPE svg PUBLIC "-//W3C//DTD SVG 20010904//EN"
 "http://www.w3.org/TR/2001/REC-SVG-20010904/DTD/svg10.dtd">
<svg version="1.0" xmlns="http://www.w3.org/2000/svg"
 width="700.000000pt" height="700.000000pt" viewBox="0 0 700.000000 700.000000"
 preserveAspectRatio="xMidYMid meet">
<metadata>
Created by potrace 1.14, written by Peter Selinger 2001-2017
</metadata>
<g transform="translate(0.000000,700.000000) scale(0.100000,-0.100000)"
fill="#000000" stroke="none">
<path d="M5820 6520 c-69 -84 -285 -313 -422 -447 -262 -255 -463 -416 -888
-708 -381 -262 -526 -378 -740 -594 -201 -203 -200 -202 -220 -290 -10 -42
-43 -183 -74 -314 -31 -131 -56 -244 -56 -252 0 -29 -17 -14 -106 90 l-89 105
-23 -28 c-37 -45 -151 -238 -212 -362 -154 -310 -265 -692 -296 -1020 -4 -41
-8 -82 -10 -90 -1 -8 -3 -25 -3 -38 -1 -28 4 -28 -231 13 -80 14 -158 28 -175
31 -65 11 -256 57 -355 85 -207 59 -350 123 -459 205 -104 78 -155 163 -167
278 -19 190 93 351 371 531 114 74 156 97 575 306 206 103 404 204 440 224 36
21 85 49 110 63 66 37 184 115 188 124 2 5 10 8 17 8 7 0 15 3 17 8 2 4 30 27
63 51 83 62 252 233 308 312 202 286 251 608 141 937 -37 109 -82 199 -147
297 -53 78 -77 105 -169 196 -131 128 -185 155 -233 118 -18 -15 -25 -30 -25
-53 0 -36 15 -56 75 -101 92 -69 249 -255 286 -339 5 -12 13 -28 18 -36 20
-32 52 -113 67 -168 15 -55 17 -67 30 -142 7 -41 6 -184 -1 -220 -3 -14 -8
-41 -11 -60 -15 -95 -76 -231 -155 -347 -51 -74 -225 -241 -329 -315 -189
-134 -287 -188 -795 -443 -214 -107 -397 -199 -405 -205 -8 -5 -56 -34 -106
-65 -130 -78 -208 -138 -291 -223 -131 -133 -184 -249 -188 -412 -2 -61 3
-113 12 -145 65 -220 257 -375 611 -494 105 -35 313 -90 397 -105 17 -3 41 -8
55 -11 75 -15 352 -64 398 -70 l52 -7 1 -101 c0 -56 2 -122 4 -147 2 -25 7
-85 10 -133 18 -244 72 -543 137 -762 26 -87 30 -113 28 -205 -4 -137 -1 -411
5 -475 2 -27 4 -55 4 -62 2 -21 44 -53 71 -53 15 0 78 24 141 54 126 59 194
90 254 116 48 21 74 33 320 148 163 75 342 167 473 241 148 84 364 264 435
361 32 44 77 149 88 203 36 190 -39 363 -224 511 -50 41 -269 156 -297 156 -9
0 -20 4 -26 9 -5 4 -49 21 -98 36 l-88 27 35 32 c232 207 694 666 798 791 40
50 76 92 79 95 11 11 67 78 95 114 17 21 36 45 43 52 14 15 -20 16 -358 14
-79 -1 -142 1 -140 3 4 4 349 187 630 335 167 88 164 86 212 169 305 539 504
1200 546 1813 13 190 7 785 -7 795 -4 2 -13 -5 -21 -15z m-1843 -4379 c263
-86 424 -195 490 -330 24 -48 28 -68 28 -141 0 -77 -4 -91 -35 -150 -47 -90
-171 -210 -312 -302 -62 -41 -120 -78 -128 -81 -8 -4 -31 -17 -50 -28 -122
-74 -957 -465 -969 -454 -6 7 -4 420 3 479 12 95 190 403 337 581 144 175 180
214 348 387 l123 127 22 -24 c13 -15 64 -38 143 -64z"/>
</g>
</svg>
