<?xml version="1.0" standalone="no"?>
<!DOCTYPE svg PUBLIC "-//W3C//DTD SVG 20010904//EN"
 "http://www.w3.org/TR/2001/REC-SVG-20010904/DTD/svg10.dtd">
<svg version="1.0" xmlns="http://www.w3.org/2000/svg"
 width="700.000000pt" height="700.000000pt" viewBox="0 0 700.000000 700.000000"
 preserveAspectRatio="xMidYMid meet">
<metadata>
Created by potrace 1.14, written by Peter Selinger 2001-2017
</metadata>
<g transform="translate(0.000000,700.000000) scale(0.100000,-0.100000)"
fill="#000000" stroke="none">
<path d="M5255 6993 c-11 -3 -33 -15 -50 -26 -32 -23 -605 -592 -605 -601 0
-7 1758 -1766 1765 -1766 2 0 137 132 300 294 325 324 342 346 332 437 -3 27
-15 64 -26 82 -26 41 -1538 1551 -1570 1567 -27 14 -115 22 -146 13z"/>
<path d="M2296 4066 l-1932 -1933 881 -882 c485 -484 885 -881 888 -881 3 0
875 869 1937 1931 l1931 1931 -883 884 c-486 486 -885 884 -886 884 -2 0 -873
-870 -1936 -1934z"/>
<path d="M4 1722 c3 -26 8 -78 11 -117 3 -38 8 -81 10 -95 3 -14 7 -59 10
-100 5 -74 10 -126 20 -225 11 -118 16 -163 20 -215 3 -30 7 -70 9 -90 3 -19
8 -71 11 -115 3 -44 8 -93 10 -110 2 -16 7 -64 10 -105 16 -193 24 -249 41
-286 19 -39 83 -100 121 -115 15 -5 45 -12 67 -14 23 -2 66 -7 96 -10 30 -3
82 -8 115 -10 33 -3 80 -7 105 -10 25 -2 70 -7 100 -10 30 -3 100 -9 155 -15
92 -9 135 -13 280 -26 28 -2 73 -6 100 -9 28 -3 77 -7 110 -10 33 -3 74 -7 90
-10 17 -2 64 -7 105 -10 41 -3 96 -8 122 -11 l48 -4 -448 447 c-246 246 -644
644 -885 884 l-437 438 4 -47z"/>
</g>
</svg>
